<svg width="36" height="37" viewBox="0 0 36 37" fill="none" xmlns="http://www.w3.org/2000/svg">
<g clip-path="url(#clip0_2139_3480)">
<circle cx="18" cy="18.5" r="18" fill="#EFDCFF"/>
<path d="M18 29C24.0751 29 29 24.0751 29 18C29 11.9249 24.0751 7 18 7M18 29C11.9249 29 7 24.0751 7 18C7 11.9249 11.9249 7 18 7M18 29C20.5579 29 22.6316 24.0751 22.6316 18C22.6316 11.9249 20.5579 7 18 7M18 29C15.442 29 13.3684 24.0751 13.3684 18C13.3684 11.9249 15.442 7 18 7M7.57895 14.5263H28.4211ZM7.57895 21.4737H28.4211Z" fill="url(#paint0_linear_2139_3480)"/>
<path d="M18 29C24.0751 29 29 24.0751 29 18C29 11.9249 24.0751 7 18 7M18 29C11.9249 29 7 24.0751 7 18C7 11.9249 11.9249 7 18 7M18 29C20.5579 29 22.6316 24.0751 22.6316 18C22.6316 11.9249 20.5579 7 18 7M18 29C15.442 29 13.3684 24.0751 13.3684 18C13.3684 11.9249 15.442 7 18 7M7.57895 14.5263H28.4211M7.57895 21.4737H28.4211" stroke="#FCFCFC" stroke-width="1.5" stroke-linecap="round" stroke-linejoin="round"/>
</g>
<defs>
<linearGradient id="paint0_linear_2139_3480" x1="25.9303" y1="6.95198" x2="12.6455" y2="26.7435" gradientUnits="userSpaceOnUse">
<stop stop-color="#BF77F9"/>
<stop offset="0.301329" stop-color="#930CFF"/>
</linearGradient>
<clipPath id="clip0_2139_3480">
<rect width="36" height="36" fill="white" transform="translate(0 0.5)"/>
</clipPath>
</defs>
</svg>
