<svg width="36" height="37" viewBox="0 0 36 37" fill="none" xmlns="http://www.w3.org/2000/svg">
<g clip-path="url(#clip0_2139_3492)">
<circle cx="18" cy="18.5" r="18" fill="#EFDCFF"/>
<path d="M18.5 22.65C18.7975 22.65 19.0471 22.5492 19.2487 22.3476C19.4503 22.146 19.5507 21.8968 19.55 21.6C19.5493 21.3032 19.4485 21.054 19.2476 20.8524C19.0467 20.6508 18.7975 20.55 18.5 20.55C18.2025 20.55 17.9533 20.6508 17.7524 20.8524C17.5515 21.054 17.4507 21.3032 17.45 21.6C17.4493 21.8968 17.5501 22.1463 17.7524 22.3486C17.9547 22.5509 18.2039 22.6514 18.5 22.65ZM18.5 18.45C18.7975 18.45 19.0471 18.3492 19.2487 18.1476C19.4503 17.946 19.5507 17.6968 19.55 17.4V13.2C19.55 12.9025 19.4492 12.6533 19.2476 12.4524C19.046 12.2515 18.7968 12.1507 18.5 12.15C18.2032 12.1493 17.954 12.2501 17.7524 12.4524C17.5508 12.6547 17.45 12.9039 17.45 13.2V17.4C17.45 17.6975 17.5508 17.947 17.7524 18.1486C17.954 18.3502 18.2032 18.4507 18.5 18.45ZM12.2 25.8L9.785 28.215C9.4525 28.5475 9.0717 28.622 8.6426 28.4386C8.2135 28.2552 7.9993 27.9269 8 27.4537V11.1C8 10.5225 8.2058 10.0283 8.6174 9.6174C9.029 9.2065 9.5232 9.0007 10.1 9H26.9C27.4775 9 27.972 9.2058 28.3836 9.6174C28.7952 10.029 29.0007 10.5232 29 11.1V23.7C29 24.2775 28.7945 24.772 28.3836 25.1836C27.9727 25.5952 27.4782 25.8007 26.9 25.8H12.2ZM11.3075 23.7H26.9V11.1H10.1V24.8812L11.3075 23.7Z" fill="#AB41FF"/>
</g>
<defs>
<clipPath id="clip0_2139_3492">
<rect width="36" height="36" fill="white" transform="translate(0 0.5)"/>
</clipPath>
</defs>
</svg>
