<svg width="36" height="37" viewBox="0 0 36 37" fill="none" xmlns="http://www.w3.org/2000/svg">
<path d="M34.4895 18.3893C34.4895 27.2817 27.2808 34.4903 18.3885 34.4903C9.49614 34.4903 2.28748 27.2817 2.28748 18.3893C2.28748 9.49699 9.49614 2.28833 18.3885 2.28833C27.2808 2.28833 34.4895 9.49699 34.4895 18.3893Z" fill="#E1F44B" stroke="#393939" stroke-width="0.198"/>
<path d="M25.423 7.78125C25.954 7.56482 26.5319 7.96686 26.5135 8.53997L25.9322 26.7248C25.9122 27.3527 25.204 27.7084 24.6883 27.3496L23.0673 26.2219L10.168 17.2474L8.4213 16.0321C7.9056 15.6734 7.99291 14.8857 8.57467 14.6486L25.423 7.78125Z" fill="#393939"/>
<path d="M5.95828 28.5127C5.85791 28.3788 5.85255 28.1963 5.94487 28.0567L12.3081 18.4376L21.5567 24.8721L14.6098 34.1789L13.4426 33.6894L11.6401 33.2394L9.39258 31.8894L7.14011 30.0894L5.95828 28.5127Z" fill="#393939"/>
<circle cx="18.3895" cy="18.3895" r="16.29" stroke="#393939" stroke-width="0.18"/>
</svg>
