<svg width="36" height="37" viewBox="0 0 36 37" fill="none" xmlns="http://www.w3.org/2000/svg">
<g clip-path="url(#clip0_2139_3468)">
<circle cx="18" cy="18.5" r="18" fill="#EFDCFF"/>
<path fill-rule="evenodd" clip-rule="evenodd" d="M18.55 10C18.8072 10 19.0554 10.0914 19.2476 10.2567C19.4398 10.422 19.5626 10.6498 19.5926 10.8969L19.6 11.0157C19.6003 11.2746 19.7028 11.5236 19.8865 11.7118C20.0702 11.9001 20.3213 12.0134 20.5885 12.0285C20.8556 12.0437 21.1187 11.9596 21.3239 11.7935C21.5291 11.6273 21.661 11.3916 21.6926 11.1345L21.7 11.0157C21.7 10.7463 21.8106 10.488 22.0075 10.2975C22.2044 10.107 22.4715 10 22.75 10H24.85C25.6854 10 26.4866 10.321 27.0774 10.8925C27.6681 11.4639 28 12.239 28 13.0471V23.2041C28 24.0122 27.6681 24.7873 27.0774 25.3587C26.4866 25.9302 25.6854 26.2512 24.85 26.2512H22.75C22.4928 26.2512 22.2446 26.1598 22.0524 25.9945C21.8602 25.8292 21.7374 25.6014 21.7073 25.3543L21.7 25.2355C21.6997 24.9766 21.5972 24.7276 21.4135 24.5394C21.2298 24.3511 20.9787 24.2378 20.7115 24.2227C20.4444 24.2075 20.1813 24.2916 19.9761 24.4577C19.7708 24.6239 19.639 24.8596 19.6073 25.1166L19.6 25.2355C19.6 25.5049 19.4894 25.7632 19.2925 25.9537C19.0955 26.1442 18.8285 26.2512 18.55 26.2512H10.15C9.31457 26.2512 8.51335 25.9302 7.92261 25.3587C7.33187 24.7873 7 24.0122 7 23.2041V13.0471C7 12.239 7.33187 11.4639 7.92261 10.8925C8.51335 10.321 9.31457 10 10.15 10H18.55ZM20.65 19.1413C20.3715 19.1413 20.1045 19.2483 19.9075 19.4388C19.7106 19.6293 19.6 19.8876 19.6 20.157V21.1727C19.6 21.4421 19.7106 21.7004 19.9075 21.8909C20.1045 22.0814 20.3715 22.1884 20.65 22.1884C20.9285 22.1884 21.1955 22.0814 21.3925 21.8909C21.5894 21.7004 21.7 21.4421 21.7 21.1727V20.157C21.7 19.8876 21.5894 19.6293 21.3925 19.4388C21.1955 19.2483 20.9285 19.1413 20.65 19.1413ZM20.65 14.0628C20.3928 14.0628 20.1446 14.1542 19.9524 14.3195C19.7602 14.4848 19.6374 14.7126 19.6073 14.9597L19.6 15.0785V16.0942C19.6003 16.3531 19.7028 16.6021 19.8865 16.7903C20.0702 16.9786 20.3213 17.0918 20.5885 17.107C20.8556 17.1222 21.1187 17.0381 21.3239 16.872C21.5291 16.7058 21.661 16.4701 21.6926 16.213L21.7 16.0942V15.0785C21.7 14.8091 21.5894 14.5508 21.3925 14.3603C21.1955 14.1698 20.9285 14.0628 20.65 14.0628Z" fill="#AB41FF"/>
</g>
<defs>
<clipPath id="clip0_2139_3468">
<rect width="36" height="36" fill="white" transform="translate(0 0.5)"/>
</clipPath>
</defs>
</svg>
